<svg width="33" height="19" viewBox="0 0 33 19" fill="none" xmlns="http://www.w3.org/2000/svg">
<path d="M27.9407 1.77151C25.4523 1.13296 22.9063 0.744368 20.3407 0.611511C19.0807 0.531511 17.7007 0.49151 16.1507 0.50151C14.6007 0.51151 13.2207 0.501511 11.9707 0.611511C9.40507 0.744368 6.85912 1.13296 4.37069 1.77151C1.72069 2.47151 0.370685 11.7115 0.0106847 14.5115C-0.0232194 14.7416 0.0241356 14.9763 0.144596 15.1752C0.265056 15.3742 0.451092 15.5249 0.670688 15.6015C0.670688 15.6015 1.47068 15.9215 2.89068 16.3315C7.10585 17.6069 11.4868 18.2506 15.8907 18.2415H16.4407C20.8447 18.2516 25.2257 17.6079 29.4407 16.3315C30.8607 15.9215 31.6707 15.6015 31.6707 15.6015C31.8903 15.5249 32.0763 15.3742 32.1968 15.1752C32.3172 14.9763 32.3646 14.7416 32.3307 14.5115C31.9607 11.6815 30.6007 2.44151 27.9407 1.77151Z" fill="#2D2D2D"/>
<path d="M16.1799 4.38154C21.8353 4.38154 26.4199 3.75474 26.4199 2.98154C26.4199 2.20834 21.8353 1.58154 16.1799 1.58154C10.5245 1.58154 5.93994 2.20834 5.93994 2.98154C5.93994 3.75474 10.5245 4.38154 16.1799 4.38154Z" fill="white"/>
<path d="M9.62127 8.87168V8.09768H11.0673V12.4717H10.2033V8.87168H9.62127ZM12.1611 11.5237C12.5451 11.2037 12.8511 10.9377 13.0791 10.7257C13.3071 10.5097 13.4971 10.2857 13.6491 10.0537C13.8011 9.82168 13.8771 9.59368 13.8771 9.36968C13.8771 9.16568 13.8291 9.00568 13.7331 8.88968C13.6371 8.77368 13.4891 8.71568 13.2891 8.71568C13.0891 8.71568 12.9351 8.78368 12.8271 8.91968C12.7191 9.05168 12.6631 9.23368 12.6591 9.46568H11.8431C11.8591 8.98568 12.0011 8.62168 12.2691 8.37368C12.5411 8.12568 12.8851 8.00168 13.3011 8.00168C13.7571 8.00168 14.1071 8.12368 14.3511 8.36768C14.5951 8.60768 14.7171 8.92568 14.7171 9.32168C14.7171 9.63368 14.6331 9.93168 14.4651 10.2157C14.2971 10.4997 14.1051 10.7477 13.8891 10.9597C13.6731 11.1677 13.3911 11.4197 13.0431 11.7157H14.8131V12.4117H11.8491V11.7877L12.1611 11.5237ZM17.4064 12.4717L16.2784 11.0557V12.4717H15.4384V8.03168H16.2784V10.5577L17.3944 9.14768H18.4864L17.0224 10.8157L18.4984 12.4717H17.4064ZM20.2443 9.09368C20.4923 9.09368 20.7103 9.14368 20.8983 9.24368C21.0863 9.33968 21.2343 9.46568 21.3423 9.62168V9.14768H22.1883V12.4957C22.1883 12.8037 22.1263 13.0777 22.0023 13.3177C21.8783 13.5617 21.6923 13.7537 21.4443 13.8937C21.1963 14.0377 20.8963 14.1097 20.5443 14.1097C20.0723 14.1097 19.6843 13.9997 19.3803 13.7797C19.0803 13.5597 18.9103 13.2597 18.8703 12.8797H19.7043C19.7483 13.0317 19.8423 13.1517 19.9863 13.2397C20.1343 13.3317 20.3123 13.3777 20.5203 13.3777C20.7643 13.3777 20.9623 13.3037 21.1143 13.1557C21.2663 13.0117 21.3423 12.7917 21.3423 12.4957V11.9797C21.2343 12.1357 21.0843 12.2657 20.8923 12.3697C20.7043 12.4737 20.4883 12.5257 20.2443 12.5257C19.9643 12.5257 19.7083 12.4537 19.4763 12.3097C19.2443 12.1657 19.0603 11.9637 18.9243 11.7037C18.7923 11.4397 18.7263 11.1377 18.7263 10.7977C18.7263 10.4617 18.7923 10.1637 18.9243 9.90368C19.0603 9.64368 19.2423 9.44368 19.4703 9.30368C19.7023 9.16368 19.9603 9.09368 20.2443 9.09368ZM21.3423 10.8097C21.3423 10.6057 21.3023 10.4317 21.2223 10.2877C21.1423 10.1397 21.0343 10.0277 20.8983 9.95168C20.7623 9.87168 20.6163 9.83168 20.4603 9.83168C20.3043 9.83168 20.1603 9.86968 20.0283 9.94568C19.8963 10.0217 19.7883 10.1337 19.7043 10.2817C19.6243 10.4257 19.5843 10.5977 19.5843 10.7977C19.5843 10.9977 19.6243 11.1737 19.7043 11.3257C19.7883 11.4737 19.8963 11.5877 20.0283 11.6677C20.1643 11.7477 20.3083 11.7877 20.4603 11.7877C20.6163 11.7877 20.7623 11.7497 20.8983 11.6737C21.0343 11.5937 21.1423 11.4817 21.2223 11.3377C21.3023 11.1897 21.3423 11.0137 21.3423 10.8097Z" fill="white"/>
</svg>
